# xmcd
#
# Track frame offsets:
#	150
#	16765
#	37142
#
# Disc length: 682 seconds
#
# Revision: 1
# Processed by: cddbd v1.4PL0 Copyright (c) Steve Scherf et al.
# Submitted via: EasyCDDAExtractor 4.6.9.1
#
DISCID=1b02a803
DTITLE=Tanita Tikaram - You Make The Whole World Cry
DYEAR=1992
DGENRE=Alternative
TTITLE0=You Make The Whole World Cry
TTITLE1=Rock Me 'Til I Stop
TTITLE2=This Stranger (Alternate Version)
EXTD=
EXTT0=
EXTT1=
EXTT2=
PLAYORDER=
